<mxfile host="app.diagrams.net" modified="2023-06-22T12:14:50.647Z" agent="Mozilla/5.0 (Windows NT 10.0; Win64; x64) AppleWebKit/537.36 (KHTML, like Gecko) Chrome/114.0.0.0 Safari/537.36" etag="MzAeUvJv_OKK8QfWdJZy" version="21.5.0" type="device">
  <diagram name="Page-1" id="ohEadpmLSCMR9Kgw1Pag">
    <mxGraphModel dx="1050" dy="581" grid="1" gridSize="10" guides="1" tooltips="1" connect="1" arrows="1" fold="1" page="1" pageScale="1" pageWidth="850" pageHeight="1100" math="0" shadow="0">
      <root>
        <mxCell id="0" />
        <mxCell id="1" parent="0" />
        <mxCell id="0WsyqsWvhymyXISmNPz0-9" value="Main" style="html=1;whiteSpace=wrap;fontSize=40;fontFamily=Times New Roman;fontStyle=1" vertex="1" parent="1">
          <mxGeometry x="120" y="10" width="150" height="60" as="geometry" />
        </mxCell>
        <mxCell id="0WsyqsWvhymyXISmNPz0-10" value="" style="endArrow=open;endFill=1;endSize=12;html=1;rounded=0;entryX=1;entryY=0.25;entryDx=0;entryDy=0;exitX=-0.03;exitY=0.061;exitDx=0;exitDy=0;exitPerimeter=0;" edge="1" parent="1" source="0WsyqsWvhymyXISmNPz0-11" target="0WsyqsWvhymyXISmNPz0-9">
          <mxGeometry width="160" relative="1" as="geometry">
            <mxPoint x="300" y="135" as="sourcePoint" />
            <mxPoint x="400" y="300" as="targetPoint" />
          </mxGeometry>
        </mxCell>
        <mxCell id="0WsyqsWvhymyXISmNPz0-11" value="Kapcsolasok" style="swimlane;fontStyle=1;align=center;verticalAlign=top;childLayout=stackLayout;horizontal=1;startSize=40;horizontalStack=0;resizeParent=1;resizeParentMax=0;resizeLast=0;collapsible=1;marginBottom=0;whiteSpace=wrap;html=1;fontSize=18;fontFamily=Times New Roman;" vertex="1" parent="1">
          <mxGeometry x="330" y="20" width="160" height="400" as="geometry" />
        </mxCell>
        <mxCell id="0WsyqsWvhymyXISmNPz0-12" value="-id: int" style="text;strokeColor=none;fillColor=none;align=left;verticalAlign=top;spacingLeft=4;spacingRight=4;overflow=hidden;rotatable=0;points=[[0,0.5],[1,0.5]];portConstraint=eastwest;whiteSpace=wrap;html=1;fontSize=15;fontFamily=Times New Roman;" vertex="1" parent="0WsyqsWvhymyXISmNPz0-11">
          <mxGeometry y="40" width="160" height="26" as="geometry" />
        </mxCell>
        <mxCell id="0WsyqsWvhymyXISmNPz0-15" value="-lampak: Lampak" style="text;strokeColor=none;fillColor=none;align=left;verticalAlign=top;spacingLeft=4;spacingRight=4;overflow=hidden;rotatable=0;points=[[0,0.5],[1,0.5]];portConstraint=eastwest;whiteSpace=wrap;html=1;fontSize=15;fontFamily=Times New Roman;" vertex="1" parent="0WsyqsWvhymyXISmNPz0-11">
          <mxGeometry y="66" width="160" height="26" as="geometry" />
        </mxCell>
        <mxCell id="0WsyqsWvhymyXISmNPz0-13" value="" style="line;strokeWidth=1;fillColor=none;align=left;verticalAlign=middle;spacingTop=-1;spacingLeft=3;spacingRight=3;rotatable=0;labelPosition=right;points=[];portConstraint=eastwest;strokeColor=inherit;" vertex="1" parent="0WsyqsWvhymyXISmNPz0-11">
          <mxGeometry y="92" width="160" height="8" as="geometry" />
        </mxCell>
        <mxCell id="0WsyqsWvhymyXISmNPz0-14" value="+constructor(): példányosítjuk a Lampak osztályt" style="text;strokeColor=none;fillColor=none;align=left;verticalAlign=top;spacingLeft=4;spacingRight=4;overflow=hidden;rotatable=0;points=[[0,0.5],[1,0.5]];portConstraint=eastwest;whiteSpace=wrap;html=1;fontFamily=Times New Roman;fontSize=15;" vertex="1" parent="0WsyqsWvhymyXISmNPz0-11">
          <mxGeometry y="100" width="160" height="64" as="geometry" />
        </mxCell>
        <mxCell id="0WsyqsWvhymyXISmNPz0-16" value="+getId()" style="text;strokeColor=none;fillColor=none;align=left;verticalAlign=top;spacingLeft=4;spacingRight=4;overflow=hidden;rotatable=0;points=[[0,0.5],[1,0.5]];portConstraint=eastwest;whiteSpace=wrap;html=1;fontFamily=Times New Roman;fontSize=15;" vertex="1" parent="0WsyqsWvhymyXISmNPz0-11">
          <mxGeometry y="164" width="160" height="36" as="geometry" />
        </mxCell>
        <mxCell id="0WsyqsWvhymyXISmNPz0-17" value="+setId()" style="text;strokeColor=none;fillColor=none;align=left;verticalAlign=top;spacingLeft=4;spacingRight=4;overflow=hidden;rotatable=0;points=[[0,0.5],[1,0.5]];portConstraint=eastwest;whiteSpace=wrap;html=1;fontFamily=Times New Roman;fontSize=15;" vertex="1" parent="0WsyqsWvhymyXISmNPz0-11">
          <mxGeometry y="200" width="160" height="40" as="geometry" />
        </mxCell>
        <mxCell id="0WsyqsWvhymyXISmNPz0-18" value="+ertekValtoztatasok()" style="text;strokeColor=none;fillColor=none;align=left;verticalAlign=top;spacingLeft=4;spacingRight=4;overflow=hidden;rotatable=0;points=[[0,0.5],[1,0.5]];portConstraint=eastwest;whiteSpace=wrap;html=1;fontFamily=Times New Roman;fontSize=15;" vertex="1" parent="0WsyqsWvhymyXISmNPz0-11">
          <mxGeometry y="240" width="160" height="40" as="geometry" />
        </mxCell>
        <mxCell id="0WsyqsWvhymyXISmNPz0-19" value="+beolvasas()" style="text;strokeColor=none;fillColor=none;align=left;verticalAlign=top;spacingLeft=4;spacingRight=4;overflow=hidden;rotatable=0;points=[[0,0.5],[1,0.5]];portConstraint=eastwest;whiteSpace=wrap;html=1;fontFamily=Times New Roman;fontSize=15;" vertex="1" parent="0WsyqsWvhymyXISmNPz0-11">
          <mxGeometry y="280" width="160" height="40" as="geometry" />
        </mxCell>
        <mxCell id="0WsyqsWvhymyXISmNPz0-20" value="+szomszedokKeresese()" style="text;strokeColor=none;fillColor=none;align=left;verticalAlign=top;spacingLeft=4;spacingRight=4;overflow=hidden;rotatable=0;points=[[0,0.5],[1,0.5]];portConstraint=eastwest;whiteSpace=wrap;html=1;fontSize=15;fontFamily=Times New Roman;" vertex="1" parent="0WsyqsWvhymyXISmNPz0-11">
          <mxGeometry y="320" width="160" height="40" as="geometry" />
        </mxCell>
        <mxCell id="0WsyqsWvhymyXISmNPz0-21" value="+jatekInditasa" style="text;strokeColor=none;fillColor=none;align=left;verticalAlign=top;spacingLeft=4;spacingRight=4;overflow=hidden;rotatable=0;points=[[0,0.5],[1,0.5]];portConstraint=eastwest;whiteSpace=wrap;html=1;fontSize=15;fontFamily=Times New Roman;" vertex="1" parent="0WsyqsWvhymyXISmNPz0-11">
          <mxGeometry y="360" width="160" height="40" as="geometry" />
        </mxCell>
        <mxCell id="0WsyqsWvhymyXISmNPz0-22" value="" style="endArrow=open;endFill=1;endSize=12;html=1;rounded=0;entryX=0.998;entryY=0.036;entryDx=0;entryDy=0;entryPerimeter=0;exitX=0.01;exitY=0.045;exitDx=0;exitDy=0;exitPerimeter=0;" edge="1" parent="1" source="0WsyqsWvhymyXISmNPz0-26" target="0WsyqsWvhymyXISmNPz0-11">
          <mxGeometry width="160" relative="1" as="geometry">
            <mxPoint x="620" y="160.73635153129158" as="sourcePoint" />
            <mxPoint x="460" y="110" as="targetPoint" />
          </mxGeometry>
        </mxCell>
        <mxCell id="0WsyqsWvhymyXISmNPz0-26" value="Lampak" style="swimlane;fontStyle=1;align=center;verticalAlign=top;childLayout=stackLayout;horizontal=1;startSize=40;horizontalStack=0;resizeParent=1;resizeParentMax=0;resizeLast=0;collapsible=1;marginBottom=0;whiteSpace=wrap;html=1;fontSize=18;fontFamily=Times New Roman;" vertex="1" parent="1">
          <mxGeometry x="560" y="20" width="160" height="774" as="geometry" />
        </mxCell>
        <mxCell id="0WsyqsWvhymyXISmNPz0-27" value="-sorokK: int[]" style="text;strokeColor=none;fillColor=none;align=left;verticalAlign=top;spacingLeft=4;spacingRight=4;overflow=hidden;rotatable=0;points=[[0,0.5],[1,0.5]];portConstraint=eastwest;whiteSpace=wrap;html=1;fontSize=15;fontFamily=Times New Roman;" vertex="1" parent="0WsyqsWvhymyXISmNPz0-26">
          <mxGeometry y="40" width="160" height="26" as="geometry" />
        </mxCell>
        <mxCell id="0WsyqsWvhymyXISmNPz0-28" value="-oszlopK: int[]" style="text;strokeColor=none;fillColor=none;align=left;verticalAlign=top;spacingLeft=4;spacingRight=4;overflow=hidden;rotatable=0;points=[[0,0.5],[1,0.5]];portConstraint=eastwest;whiteSpace=wrap;html=1;fontSize=15;fontFamily=Times New Roman;" vertex="1" parent="0WsyqsWvhymyXISmNPz0-26">
          <mxGeometry y="66" width="160" height="26" as="geometry" />
        </mxCell>
        <mxCell id="0WsyqsWvhymyXISmNPz0-37" value="-lampak: boolean[]" style="text;strokeColor=none;fillColor=none;align=left;verticalAlign=top;spacingLeft=4;spacingRight=4;overflow=hidden;rotatable=0;points=[[0,0.5],[1,0.5]];portConstraint=eastwest;whiteSpace=wrap;html=1;fontSize=15;fontFamily=Times New Roman;" vertex="1" parent="0WsyqsWvhymyXISmNPz0-26">
          <mxGeometry y="92" width="160" height="26" as="geometry" />
        </mxCell>
        <mxCell id="0WsyqsWvhymyXISmNPz0-38" value="-lampakDb: int[][]" style="text;strokeColor=none;fillColor=none;align=left;verticalAlign=top;spacingLeft=4;spacingRight=4;overflow=hidden;rotatable=0;points=[[0,0.5],[1,0.5]];portConstraint=eastwest;whiteSpace=wrap;html=1;fontSize=15;fontFamily=Times New Roman;" vertex="1" parent="0WsyqsWvhymyXISmNPz0-26">
          <mxGeometry y="118" width="160" height="26" as="geometry" />
        </mxCell>
        <mxCell id="0WsyqsWvhymyXISmNPz0-39" value="-amigvanNulla: boolean" style="text;strokeColor=none;fillColor=none;align=left;verticalAlign=top;spacingLeft=4;spacingRight=4;overflow=hidden;rotatable=0;points=[[0,0.5],[1,0.5]];portConstraint=eastwest;whiteSpace=wrap;html=1;fontSize=15;fontFamily=Times New Roman;" vertex="1" parent="0WsyqsWvhymyXISmNPz0-26">
          <mxGeometry y="144" width="160" height="26" as="geometry" />
        </mxCell>
        <mxCell id="0WsyqsWvhymyXISmNPz0-29" value="" style="line;strokeWidth=1;fillColor=none;align=left;verticalAlign=middle;spacingTop=-1;spacingLeft=3;spacingRight=3;rotatable=0;labelPosition=right;points=[];portConstraint=eastwest;strokeColor=inherit;" vertex="1" parent="0WsyqsWvhymyXISmNPz0-26">
          <mxGeometry y="170" width="160" height="8" as="geometry" />
        </mxCell>
        <mxCell id="0WsyqsWvhymyXISmNPz0-30" value="+constructor()" style="text;strokeColor=none;fillColor=none;align=left;verticalAlign=top;spacingLeft=4;spacingRight=4;overflow=hidden;rotatable=0;points=[[0,0.5],[1,0.5]];portConstraint=eastwest;whiteSpace=wrap;html=1;fontFamily=Times New Roman;fontSize=15;" vertex="1" parent="0WsyqsWvhymyXISmNPz0-26">
          <mxGeometry y="178" width="160" height="40" as="geometry" />
        </mxCell>
        <mxCell id="0WsyqsWvhymyXISmNPz0-31" value="+getsorokK()" style="text;strokeColor=none;fillColor=none;align=left;verticalAlign=top;spacingLeft=4;spacingRight=4;overflow=hidden;rotatable=0;points=[[0,0.5],[1,0.5]];portConstraint=eastwest;whiteSpace=wrap;html=1;fontFamily=Times New Roman;fontSize=15;" vertex="1" parent="0WsyqsWvhymyXISmNPz0-26">
          <mxGeometry y="218" width="160" height="36" as="geometry" />
        </mxCell>
        <mxCell id="0WsyqsWvhymyXISmNPz0-32" value="+setSorokK()" style="text;strokeColor=none;fillColor=none;align=left;verticalAlign=top;spacingLeft=4;spacingRight=4;overflow=hidden;rotatable=0;points=[[0,0.5],[1,0.5]];portConstraint=eastwest;whiteSpace=wrap;html=1;fontFamily=Times New Roman;fontSize=15;" vertex="1" parent="0WsyqsWvhymyXISmNPz0-26">
          <mxGeometry y="254" width="160" height="40" as="geometry" />
        </mxCell>
        <mxCell id="0WsyqsWvhymyXISmNPz0-33" value="+getOszlopK()" style="text;strokeColor=none;fillColor=none;align=left;verticalAlign=top;spacingLeft=4;spacingRight=4;overflow=hidden;rotatable=0;points=[[0,0.5],[1,0.5]];portConstraint=eastwest;whiteSpace=wrap;html=1;fontFamily=Times New Roman;fontSize=15;" vertex="1" parent="0WsyqsWvhymyXISmNPz0-26">
          <mxGeometry y="294" width="160" height="40" as="geometry" />
        </mxCell>
        <mxCell id="0WsyqsWvhymyXISmNPz0-34" value="+setOszlopK()" style="text;strokeColor=none;fillColor=none;align=left;verticalAlign=top;spacingLeft=4;spacingRight=4;overflow=hidden;rotatable=0;points=[[0,0.5],[1,0.5]];portConstraint=eastwest;whiteSpace=wrap;html=1;fontFamily=Times New Roman;fontSize=15;" vertex="1" parent="0WsyqsWvhymyXISmNPz0-26">
          <mxGeometry y="334" width="160" height="40" as="geometry" />
        </mxCell>
        <mxCell id="0WsyqsWvhymyXISmNPz0-35" value="+getLampak()" style="text;strokeColor=none;fillColor=none;align=left;verticalAlign=top;spacingLeft=4;spacingRight=4;overflow=hidden;rotatable=0;points=[[0,0.5],[1,0.5]];portConstraint=eastwest;whiteSpace=wrap;html=1;fontSize=15;fontFamily=Times New Roman;" vertex="1" parent="0WsyqsWvhymyXISmNPz0-26">
          <mxGeometry y="374" width="160" height="40" as="geometry" />
        </mxCell>
        <mxCell id="0WsyqsWvhymyXISmNPz0-36" value="+setLampak()" style="text;strokeColor=none;fillColor=none;align=left;verticalAlign=top;spacingLeft=4;spacingRight=4;overflow=hidden;rotatable=0;points=[[0,0.5],[1,0.5]];portConstraint=eastwest;whiteSpace=wrap;html=1;fontSize=15;fontFamily=Times New Roman;" vertex="1" parent="0WsyqsWvhymyXISmNPz0-26">
          <mxGeometry y="414" width="160" height="40" as="geometry" />
        </mxCell>
        <mxCell id="0WsyqsWvhymyXISmNPz0-40" value="+getLampakDb()" style="text;strokeColor=none;fillColor=none;align=left;verticalAlign=top;spacingLeft=4;spacingRight=4;overflow=hidden;rotatable=0;points=[[0,0.5],[1,0.5]];portConstraint=eastwest;whiteSpace=wrap;html=1;fontSize=15;fontFamily=Times New Roman;" vertex="1" parent="0WsyqsWvhymyXISmNPz0-26">
          <mxGeometry y="454" width="160" height="40" as="geometry" />
        </mxCell>
        <mxCell id="0WsyqsWvhymyXISmNPz0-41" value="+setLampakDb()" style="text;strokeColor=none;fillColor=none;align=left;verticalAlign=top;spacingLeft=4;spacingRight=4;overflow=hidden;rotatable=0;points=[[0,0.5],[1,0.5]];portConstraint=eastwest;whiteSpace=wrap;html=1;fontSize=15;fontFamily=Times New Roman;" vertex="1" parent="0WsyqsWvhymyXISmNPz0-26">
          <mxGeometry y="494" width="160" height="40" as="geometry" />
        </mxCell>
        <mxCell id="0WsyqsWvhymyXISmNPz0-42" value="+setAmigvanNulla()" style="text;strokeColor=none;fillColor=none;align=left;verticalAlign=top;spacingLeft=4;spacingRight=4;overflow=hidden;rotatable=0;points=[[0,0.5],[1,0.5]];portConstraint=eastwest;whiteSpace=wrap;html=1;fontSize=15;fontFamily=Times New Roman;" vertex="1" parent="0WsyqsWvhymyXISmNPz0-26">
          <mxGeometry y="534" width="160" height="40" as="geometry" />
        </mxCell>
        <mxCell id="0WsyqsWvhymyXISmNPz0-43" value="+getAmigvanNulla()" style="text;strokeColor=none;fillColor=none;align=left;verticalAlign=top;spacingLeft=4;spacingRight=4;overflow=hidden;rotatable=0;points=[[0,0.5],[1,0.5]];portConstraint=eastwest;whiteSpace=wrap;html=1;fontSize=15;fontFamily=Times New Roman;" vertex="1" parent="0WsyqsWvhymyXISmNPz0-26">
          <mxGeometry y="574" width="160" height="40" as="geometry" />
        </mxCell>
        <mxCell id="0WsyqsWvhymyXISmNPz0-44" value="+kiir()" style="text;strokeColor=none;fillColor=none;align=left;verticalAlign=top;spacingLeft=4;spacingRight=4;overflow=hidden;rotatable=0;points=[[0,0.5],[1,0.5]];portConstraint=eastwest;whiteSpace=wrap;html=1;fontSize=15;fontFamily=Times New Roman;" vertex="1" parent="0WsyqsWvhymyXISmNPz0-26">
          <mxGeometry y="614" width="160" height="40" as="geometry" />
        </mxCell>
        <mxCell id="0WsyqsWvhymyXISmNPz0-45" value="+randomLampak()" style="text;strokeColor=none;fillColor=none;align=left;verticalAlign=top;spacingLeft=4;spacingRight=4;overflow=hidden;rotatable=0;points=[[0,0.5],[1,0.5]];portConstraint=eastwest;whiteSpace=wrap;html=1;fontSize=15;fontFamily=Times New Roman;" vertex="1" parent="0WsyqsWvhymyXISmNPz0-26">
          <mxGeometry y="654" width="160" height="40" as="geometry" />
        </mxCell>
        <mxCell id="0WsyqsWvhymyXISmNPz0-46" value="+modositottElemek()" style="text;strokeColor=none;fillColor=none;align=left;verticalAlign=top;spacingLeft=4;spacingRight=4;overflow=hidden;rotatable=0;points=[[0,0.5],[1,0.5]];portConstraint=eastwest;whiteSpace=wrap;html=1;fontSize=15;fontFamily=Times New Roman;" vertex="1" parent="0WsyqsWvhymyXISmNPz0-26">
          <mxGeometry y="694" width="160" height="40" as="geometry" />
        </mxCell>
        <mxCell id="0WsyqsWvhymyXISmNPz0-47" value="+amigVanNulla()" style="text;strokeColor=none;fillColor=none;align=left;verticalAlign=top;spacingLeft=4;spacingRight=4;overflow=hidden;rotatable=0;points=[[0,0.5],[1,0.5]];portConstraint=eastwest;whiteSpace=wrap;html=1;fontSize=15;fontFamily=Times New Roman;" vertex="1" parent="0WsyqsWvhymyXISmNPz0-26">
          <mxGeometry y="734" width="160" height="40" as="geometry" />
        </mxCell>
      </root>
    </mxGraphModel>
  </diagram>
</mxfile>
